<svg xmlns="http://www.w3.org/2000/svg" viewBox="0 0 193.06 171.34"><defs><style>.cls-1{fill:#99bfa3;}.cls-2{font-size:33px;}.cls-2,.cls-3,.cls-6,.cls-7{fill:#434351;}.cls-2,.cls-3{font-family:JosefinSans-SemiBold, Josefin Sans;font-weight:600;}.cls-3{font-size:34px;}.cls-4{letter-spacing:-0.04em;}.cls-5{letter-spacing:0em;}.cls-6{font-size:11.13px;font-family:JosefinSans-Light, Josefin Sans;font-weight:300;}</style></defs><title>Asset 1</title><g id="Layer_2" data-name="Layer 2"><g id="OBJECTS"><path class="cls-1" d="M171.35,42.3c-2.14-9.28-5.95-18.29-12-25.74A45.38,45.38,0,0,0,138.27,1.7,35.41,35.41,0,0,0,119.51.9a30.39,30.39,0,0,0-4.81,1,25.22,25.22,0,0,0-10.44,6.23,40.91,40.91,0,0,0-6.63,9C93.76,23.83,91,31.22,86.23,37.46,81.09,44.24,73.62,48.14,65.8,51.08s-16.29,5.24-23.68,9.55A46.79,46.79,0,0,0,24.34,79.36a42.69,42.69,0,0,0-4.15,28.34c2,9.35,7.81,17.3,14.66,23.75a77.85,77.85,0,0,0,21,14,88,88,0,0,0,24.37,7,92.33,92.33,0,0,0,25.29,0A87.56,87.56,0,0,0,131,145a65.63,65.63,0,0,0,22.22-16.66c6.13-7.26,10.45-15.85,13.6-24.77a122.7,122.7,0,0,0,6.54-30.39A99.87,99.87,0,0,0,171.35,42.3ZM140.15,3.6a71.06,71.06,0,0,0-9-2.26A36.75,36.75,0,0,1,140.15,3.6Z"/><text/><text class="cls-2" transform="translate(40.97 81.61)">PLANT</text><text class="cls-3" transform="translate(49.71 121.14)">LA<tspan class="cls-4" x="45.19" y="0">D</tspan><tspan class="cls-5" x="69.7" y="0">Y</tspan></text><text/><text/><text class="cls-6" transform="translate(59.57 36.49) rotate(-32.77)">S</text><text class="cls-6" transform="matrix(0.88, -0.48, 0.48, 0.88, 64.89, 33.12)"> </text><text class="cls-6" transform="matrix(0.9, -0.43, 0.43, 0.9, 67.81, 31.54)">I</text><text class="cls-6" transform="translate(70.49 30.24) rotate(-22.73)"> </text><text class="cls-6" transform="translate(73.41 28.86) rotate(-17.19)">N</text><text class="cls-6" transform="translate(82.01 26.34) rotate(-11.63)"> </text><text class="cls-6" transform="translate(85.19 25.58) rotate(-6.75)">C</text><text class="cls-6" transform="translate(92.68 24.78) rotate(-1.9)"> </text><text class="cls-6" transform="translate(95.93 24.59) rotate(2.63)">E</text><text class="cls-6" transform="matrix(0.99, 0.13, -0.13, 0.99, 102.88, 24.98)"> </text><text class="cls-6" transform="translate(106.16 25.39) rotate(10.22)"> </text><text class="cls-6" transform="matrix(0.97, 0.25, -0.25, 0.97, 109.39, 25.93)">2</text><text class="cls-6" transform="translate(114.71 27.32) rotate(18.21)"> </text><text class="cls-6" transform="translate(117.85 28.27) rotate(22.77)">0</text><text class="cls-6" transform="translate(124.04 30.94) rotate(27.32)"> </text><text class="cls-6" transform="translate(126.98 32.45) rotate(30.35)">1</text><text class="cls-6" transform="translate(129.92 34.17) rotate(33.4)"> </text><text class="cls-6" transform="matrix(0.8, 0.6, -0.6, 0.8, 132.68, 35.94)">7</text><text class="cls-6" transform="matrix(-0.82, 0.57, -0.57, -0.82, 135.55, 138.04)">S</text><text class="cls-6" transform="matrix(-0.86, 0.51, -0.51, -0.86, 130.35, 141.63)"> </text><text class="cls-6" transform="matrix(-0.88, 0.47, -0.47, -0.88, 127.51, 143.32)">I</text><text class="cls-6" transform="translate(124.89 144.72) rotate(154.93)"> </text><text class="cls-6" transform="matrix(-0.94, 0.33, -0.33, -0.94, 122.03, 146.22)">N</text><text class="cls-6" transform="translate(113.54 149.09) rotate(166.02)"> </text><text class="cls-6" transform="translate(110.42 149.98) rotate(170.91)">C</text><text class="cls-6" transform="translate(102.96 151.08) rotate(175.78)"> </text><text class="cls-6" transform="translate(99.73 151.44) rotate(-179.07)">E</text><text class="cls-6" transform="translate(92.76 151.29) rotate(-175.11)"> </text><text class="cls-6" transform="translate(89.46 151.01) rotate(-172.13)"> </text><text class="cls-6" transform="matrix(-0.98, -0.21, 0.21, -0.98, 86.19, 150.61)">2</text><text class="cls-6" transform="matrix(-0.96, -0.27, 0.27, -0.96, 80.81, 149.44)"> </text><text class="cls-6" transform="translate(77.66 148.62) rotate(-159.58)">0</text><text class="cls-6" transform="matrix(-0.91, -0.42, 0.42, -0.91, 71.35, 146.21)"> </text><text class="cls-6" transform="matrix(-0.88, -0.47, 0.47, -0.88, 68.34, 144.81)">1</text><text class="cls-6" transform="translate(65.35 143.22) rotate(-148.93)"> </text><text class="cls-6" transform="matrix(-0.82, -0.57, 0.57, -0.82, 62.52, 141.55)">7</text><path class="cls-7" d="M96.51,37.6c-5.15,0-5.12,8,0,8S101.67,37.6,96.51,37.6Z"/><path class="cls-7" d="M96.51,130.18c-5.15,0-5.12,8,0,8S101.67,130.18,96.51,130.18Z"/></g></g></svg>